<svg xmlns="http://www.w3.org/2000/svg" width="24" height="24" viewBox="0 0 24 24" fill="none">
  <path d="M12 2.8c-5.1 0-9.2 4-9.2 9 0 3.9 2.5 7.2 6 8.5-.1-.7-.2-1.8 0-2.5l1.1-4.6s-.3-.7-.3-1.6c0-1.5.9-2.6 2-2.6.9 0 1.4.7 1.4 1.6 0 1-.6 2.5-.9 3.9-.3 1.1.6 2 1.7 2 2 0 3.5-2.1 3.5-5.2 0-2.7-2-4.6-4.8-4.6-3.3 0-5.2 2.5-5.2 5 0 1 .4 2 .9 2.5.1.1.1.2.1.4l-.3 1.2c-.1.4-.3.5-.7.3-1.3-.6-2.1-2.5-2.1-4.1 0-3.4 2.5-6.5 7.2-6.5 3.8 0 6.7 2.7 6.7 6.3 0 3.8-2.4 6.9-5.7 6.9-1.1 0-2.2-.6-2.6-1.3l-.7 2.5c-.3.8-.9 1.8-1.3 2.4.9.3 1.9.5 2.9.5 5.1 0 9.2-4 9.2-9s-4.1-9-9.2-9Z" fill="currentColor" opacity="0.92"/>
</svg>
