<svg xmlns="http://www.w3.org/2000/svg" viewBox="0 0 24 24" fill="none" stroke="currentColor" stroke-width="1.8" stroke-linecap="round" stroke-linejoin="round" aria-hidden="true">
  <path d="M12 20.2c-1.4 0-2.7-.4-3.9-1.1L5 20l.9-3.1A8 8 0 1 1 20 12a8 8 0 0 1-8 8.2Z" />
  <path d="M9.2 9.6c.2-.5.5-.6.8-.6h.7c.2 0 .4.1.5.4l.7 1.7c.1.3.1.6-.1.8l-.5.5c.6 1.2 1.6 2.2 2.8 2.8l.5-.5c.2-.2.5-.2.8-.1l1.7.7c.3.1.4.3.4.5v.7c0 .3-.1.6-.6.8-.6.2-1.8.4-3.6-.5-2.2-1.1-4.1-3-5.2-5.2-.9-1.8-.7-3-.5-3.6Z" fill="currentColor" stroke="none" opacity="0.9" />
</svg>
