<svg xmlns="http://www.w3.org/2000/svg" width="1600" height="900" viewBox="0 0 1600 900">
  <defs>
    <filter id="blur" x="-20%" y="-20%" width="140%" height="140%">
      <feGaussianBlur stdDeviation="0.9"/>
    </filter>
  </defs>
  <!-- Silueta abstracta (no un mapa real) para evitar usar material con copyright -->
  <g fill="#2E2E2E" opacity="0.10" filter="url(#blur)">
    <path d="M174 401c40-53 92-70 160-54 26 6 47 19 74 21 37 3 74-17 112-12 29 4 55 24 82 30 33 8 69-3 100 8 37 14 63 49 100 63 41 16 89 1 129 12 44 12 72 52 116 66 55 17 113-7 168 8 34 9 56 38 90 47 49 13 105-13 152 9 24 12 43 33 69 41 32 10 68-1 101 8 31 9 56 29 86 40 26 10 56 11 84 14l-9 55c-37-6-73-8-109-16-34-8-61-27-92-39-34-14-73-2-106-12-31-10-52-33-81-45-45-19-96 4-143-9-33-9-56-39-90-49-57-17-118 7-176-11-44-13-74-54-120-67-40-11-86 4-126-12-38-15-65-50-103-65-32-12-69 0-103-8-30-7-56-27-86-31-38-6-74 14-111 12-33-2-60-18-92-23-49-8-86 10-119 52z"/>
    <path d="M250 280c18-21 44-34 77-31 20 2 35 11 53 12 26 2 52-13 78-10 17 2 33 13 50 16 21 4 44-2 65 3 22 6 38 24 60 31 27 9 59 1 86 6 24 5 41 22 65 29 31 9 66-3 96 5 16 4 28 14 44 19 19 6 40 4 60 5l-6 35c-23-2-46-1-68-6-19-4-33-15-51-20-28-9-60 4-88-5-25-7-43-24-69-31-28-8-60 4-88-6-24-9-41-27-65-34-19-5-40 1-59-3-18-4-33-14-52-17-26-3-52 12-77 10-22-1-41-11-63-13-24-2-41 6-55 24z"/>
  </g>
</svg>
